<?xml version="1.0" encoding="UTF-8"?>
<!DOCTYPE svg PUBLIC "-//W3C//DTD SVG 1.1//EN" "http://www.w3.org/Graphics/SVG/1.1/DTD/svg11.dtd">
<!-- Creator: CorelDRAW X8 -->
<svg xmlns="http://www.w3.org/2000/svg" xml:space="preserve" width="155px" height="180px" version="1.1" style="shape-rendering:geometricPrecision; text-rendering:geometricPrecision; image-rendering:optimizeQuality; fill-rule:evenodd; clip-rule:evenodd"
viewBox="0 0 2911457 3371130"
 xmlns:xlink="http://www.w3.org/1999/xlink">
 <defs>
  <style type="text/css">
   <![CDATA[
    .fil0 {fill:white}
    .fil1 {fill:#943D37}
   ]]>
  </style>
 </defs>
 <g id="Слой_x0020_1">
  <metadata id="CorelCorpID_0Corel-Layer"/>
  <g id="_2536787365728">
   <rect class="fil0" x="11" y="80" width="2911430" height="3370975" rx="112373" ry="115081"/>
   <path class="fil1" d="M112378 3371130l792258 0 0 -1067533 -904636 0 0 955155c0,61827 50551,112378 112378,112378zm1997121 -1629360l84003 0c30929,0 56204,-25281 56204,-56189l0 0c0,-30908 -25275,-56189 -56204,-56189l-84003 0c-30929,0 -56205,25281 -56205,56189l0 0c0,30908 25276,56189 56205,56189zm-431929 0l83997 0c30929,0 56205,-25281 56205,-56189l0 0c0,-30908 -25276,-56189 -56205,-56189l-83997 0c-30930,0 -56205,25281 -56205,56189l0 0c0,30908 25275,56189 56205,56189zm-1672569 -1294503l263957 585923c12757,28313 46176,40948 74372,28297l10 -6c28196,-12651 40905,-45980 28153,-74292l-263962 -585924c-12752,-28312 -46171,-40952 -74367,-28301l-10 5c-28196,12651 -40910,45986 -28153,74298zm151181 1043537l418566 672543c16304,26194 51178,34391 77420,18056l0 0c26241,-16330 34295,-51242 17991,-77436l-418572 -672543c-16303,-26194 -51177,-34385 -77419,-18055l0 0c-26242,16330 -34290,51241 -17986,77435zm748454 700415l0 -1011308 -904636 0 0 1011308 347136 0c-18039,-3478 -34093,-15683 -41547,-33807l-301337 -732603c-11732,-28535 1991,-61625 30574,-73384l0 0c28583,-11759 61620,2102 73358,30638l301337 732602c11738,28535 -1991,61630 -30574,73384l0 0c-3477,1434 -7024,2480 -10586,3170l536275 0zm0 -1123686l0 -1067533 -792258 0c-61827,0 -112378,50551 -112378,112378l0 955155 904636 0zm131681 2303597l838822 0 0 -3371130 -838822 0 0 3371130zm970504 0l792258 0c61827,0 112378,-50551 112378,-112378l0 -3146374c0,-61827 -50551,-112378 -112378,-112378l-792258 0 0 3371130z"/>
  </g>
 </g>
</svg>
