<?xml version="1.0" encoding="UTF-8"?>
<!DOCTYPE svg PUBLIC "-//W3C//DTD SVG 1.1//EN" "http://www.w3.org/Graphics/SVG/1.1/DTD/svg11.dtd">
<!-- Creator: CorelDRAW X8 -->
<svg xmlns="http://www.w3.org/2000/svg" xml:space="preserve" width="380px" height="59px" version="1.1" style="shape-rendering:geometricPrecision; text-rendering:geometricPrecision; image-rendering:optimizeQuality; fill-rule:evenodd; clip-rule:evenodd"
viewBox="0 0 21283357 3303150"
 xmlns:xlink="http://www.w3.org/1999/xlink">
 <defs>
  <style type="text/css">
   <![CDATA[
    .fil0 {fill:#943D37}
   ]]>
  </style>
 </defs>
 <g id="Слой_x0020_1">
  <metadata id="CorelCorpID_0Corel-Layer"/>
  <g id="_2536784198512">
   <path class="fil0" d="M1803028 1983326l0 -1141019c0,-110340 906,-209015 2241,-296025 1796,-87456 2702,-149356 3592,-185686l-5833 0 -543151 1622730 -258345 0 -544041 -1620028 -5387 0c3592,0 5387,159670 5387,479009l0 1141019 -252973 0 0 -1932200 374518 0 551224 1633489 5832 0 548523 -1633489 371371 0 0 1932200 -252958 0zm2069447 0l-1426285 0 0 -1932200 1407898 0 0 231439 -1146852 0 0 592036 1057585 0 0 231423 -1057585 0 0 645863 1165239 0 0 231439zm629716 -1700761l0 583962 637329 0c101377,0 189722,15702 265084,46644 75345,30942 136785,73550 184334,127377 47534,53827 82529,114377 104508,181649 21979,67272 33183,137691 33183,212146 0,100916 -27351,193759 -82084,277638 -54717,84309 -127376,150246 -217978,198686 -91047,48440 -186131,72659 -286586,72659l-898836 0 0 -1932200 1361699 0 0 231439 -1100653 0zm0 1477395l572743 0c116173,0 209015,-26460 278528,-78937 69529,-52921 104063,-135895 104063,-249366 0,-126486 -33644,-214848 -101361,-265528 -67733,-50681 -165057,-76251 -291544,-76251l-562429 0 0 670082zm2960194 223366l-1426285 0 0 -1932200 1407898 0 0 231439 -1146851 0 0 592036 1057584 0 0 231423 -1057584 0 0 645863 1165238 0 0 231439zm715821 -1700761l0 1178684c0,150261 -24220,266879 -73104,349392 -48440,82989 -110341,138597 -185241,167298 -75345,28717 -160560,43068 -256104,43068l0 -234125c104952,0 175371,-28257 212162,-84325 36330,-56068 54717,-136356 54717,-241753l0 -1409678 1291710 0 0 1932200 -261031 0 0 -1700761 -783109 0zm1708851 583962l637328 0c131875,0 240864,27812 326969,82974 86120,55607 148465,126932 187926,214832 39031,87471 58754,179408 58754,275843 0,103601 -22869,196889 -69068,279879 -46199,82513 -113026,147099 -200037,193759 -87010,46183 -188371,69512 -304544,69512l-898375 0 0 -1932200 261047 0 0 815401zm0 893433l560187 0c254309,0 381685,-107638 381685,-322470 0,-231885 -130968,-347612 -392889,-347612l-548983 0 0 670082zm2107111 -643161l0 242199 -659307 0 0 -242199 659307 0zm583979 866527l-261047 0 0 -1932200 261047 0 0 936056 936485 -936056 360612 0 -804627 780406 826606 1151794 -339078 0 -676360 -969239 -303638 291084 0 678155zm1881059 -1700761l0 1178684c0,150261 -24220,266879 -73104,349392 -48440,82989 -110341,138597 -185241,167298 -75345,28717 -160560,43068 -256104,43068l0 -234125c104952,0 175371,-28257 212162,-84325 36330,-56068 54717,-136356 54717,-241753l0 -1409678 1291710 0 0 1932200 -261031 0 0 -1700761 -783109 0zm1749217 1138317l-201832 562444 -269120 0 726596 -1932200 296025 0 699675 1932200 -285251 0 -191057 -562444 -775036 0zm680397 -231423l-284806 -850381 -5387 0 -309471 850381 599664 0zm2069892 -557057c-32293,-151152 -100455,-255659 -203612,-313968 -103173,-57848 -215738,-87010 -338188,-87010 -118859,0 -226497,29162 -322042,87471 -95973,58293 -171319,144858 -226942,260586 -55162,115267 -82973,254753 -82973,418905 0,245790 50235,441790 150706,586664 100455,145319 264162,217978 490214,217978 68623,0 139503,-14350 212607,-43513 73105,-28701 141283,-82973 203628,-161910 62791,-78937 107639,-187482 134989,-324728l252974 0c-31848,217979 -102267,383926 -211257,496952 -108989,113471 -219329,185686 -331449,217089 -112136,31848 -213052,47534 -302303,47534 -114361,0 -222906,-19277 -326063,-58309 -102711,-38570 -195109,-99565 -277193,-182094 -82513,-82973 -147099,-190167 -194649,-322025 -47550,-131875 -71309,-287047 -71309,-465565 0,-148911 20629,-285251 61885,-408591 41272,-123801 100916,-230089 178963,-318895 78047,-89251 173131,-157874 284806,-206313 111675,-48440 236811,-72660 375853,-72660 157429,0 294230,29146 409941,87455 115728,58754 205424,135895 269121,232330 63680,96434 102251,200481 115266,312617l-252973 0zm1942960 0c-32293,-151152 -100455,-255659 -203612,-313968 -103173,-57848 -215738,-87010 -338188,-87010 -118859,0 -226497,29162 -322042,87471 -95973,58293 -171319,144858 -226942,260586 -55162,115267 -82973,254753 -82973,418905 0,245790 50235,441790 150706,586664 100456,145319 264162,217978 490214,217978 68623,0 139503,-14350 212607,-43513 73105,-28701 141283,-82973 203628,-161910 62791,-78937 107639,-187482 134989,-324728l252974 0c-31848,217979 -102267,383926 -211256,496952 -108990,113471 -219330,185686 -331450,217089 -112136,31848 -213052,47534 -302303,47534 -114361,0 -222906,-19277 -326063,-58309 -102711,-38570 -195109,-99565 -277193,-182094 -82513,-82973 -147099,-190167 -194649,-322025 -47550,-131875 -71308,-287047 -71308,-465565 0,-148911 20628,-285251 61884,-408591 41272,-123801 100916,-230089 178963,-318895 78047,-89251 173131,-157874 284806,-206313 111675,-48440 236811,-72660 375853,-72660 157429,0 294230,29146 409941,87455 115728,58754 205424,135895 269121,232330 63680,96434 102251,200481 115266,312617l-252973 0zm-20901672 1595570l21283357 0 0 122323 -21283357 0 0 -122323z"/>
   <path class="fil0" d="M225607 3074396l1955 0 321739 -487750 103109 0 0 603811 -84276 0 0 -487766 -1796 0 -327143 487766 -97865 0 0 -603811 84277 0 0 487750zm986323 -487750l86963 0 0 603811 -86963 0 0 -281722 -336249 0 0 281722 -86962 0 0 -603811 86962 0 0 249763 336249 0 0 -249763zm250161 603811l0 112693 -78889 0 0 -185018 42877 0c15384,-23410 26302,-47789 32722,-73296 6421,-25380 9567,-55368 9567,-89855l0 -368335 429506 0 0 531486 49298 0 0 185018 -78890 0 0 -112693 -406191 0zm46469 -72325l302335 0 0 -459176 -260030 0 0 296025c0,61821 -14048,116205 -42305,163151zm609883 -43736l1955 0 321739 -487750 103109 0 0 603811 -84277 0 0 -487766 -1795 0 -327127 487766 -97881 0 0 -603811 84277 0 0 487750zm563111 -487750l283471 0c38730,0 71754,6865 99105,20453 27334,13604 47963,31959 61852,54940 13906,22996 20931,48503 20931,76680 0,58865 -28702,101059 -86073,126280 33771,12905 61551,29433 83530,49473 21963,20183 33024,52715 33024,97833 0,32802 -8375,62806 -25269,89712 -16862,27048 -41987,48630 -75154,64475 -33327,15972 -72787,23965 -118207,23965l-277210 0 0 -603811zm86979 255643l156746 0c44085,0 77570,-7422 100423,-22138 22869,-14859 34232,-39953 34232,-75409 0,-29146 -10473,-51157 -31530,-66016 -21073,-14860 -55004,-22281 -102076,-22281l-157795 0 0 185844zm0 278369l185447 0c44530,0 78460,-9805 101615,-29432 23171,-19484 34820,-46533 34820,-80876 0,-67701 -50219,-101615 -150627,-101615l-171255 0 0 211923zm595373 -46262l1955 0 321739 -487750 103109 0 0 603811 -84292 0 0 -487766 -1796 0 -327127 487766 -97865 0 0 -603811 84277 0 0 487750zm589095 116061l0 112693 -78905 0 0 -185018 42894 0c15383,-23410 26301,-47789 32722,-73296 6420,-25380 9567,-55368 9567,-89855l0 -368335 429505 0 0 531486 49298 0 0 185018 -78889 0 0 -112693 -406192 0zm46470 -72325l302335 0 0 -459176 -260030 0 0 296025c0,61821 -14049,116205 -42305,163151zm690583 82417c-6579,1685 -16130,2527 -28685,2527 -19723,-842 -39159,-3925 -58293,-9249l0 -74853c14652,7851 29146,11776 43799,11776 23012,0 39890,-9805 50363,-29432l38538 -72183 -263605 -442489 108354 0 201895 353063 163039 -353063 99677 0 -265417 532471c-24220,46946 -54098,74137 -89665,81432zm433828 -185860l-67240 175768 -89665 0 242104 -603811 98611 0 233140 603811 -95036 0 -63680 -175768 -258234 0zm226720 -72326l-94909 -265735 -1796 0 -103109 265735 199814 0zm386596 -283407l0 368351c0,46962 -8058,83403 -24363,109180 -16131,25936 -36743,43323 -61710,52286 -25110,8979 -53494,13461 -85326,13461l0 -73169c34963,0 58420,-8836 70689,-26349 12094,-17513 18228,-42607 18228,-75552l0 -440518 430396 0 0 603811 -86979 0 0 -531501 -260935 0zm569389 182491l212352 0c43943,0 80241,8693 108958,25936 28686,17386 49457,39667 62600,67145 13000,27319 19579,56052 19579,86200 0,32372 -7628,61519 -23012,87455 -15384,25793 -37649,45976 -66652,60550 -28988,14430 -62775,21724 -101473,21724l-299331 0 0 -603811 86979 0 0 254801zm0 279211l186639 0c84753,0 127186,-33644 127186,-100773 0,-72468 -43641,-108623 -130905,-108623l-182920 0 0 209396zm934323 -534012l86963 0 0 603811 -86963 0 0 -281722 -336249 0 0 281722 -86978 0 0 -603811 86978 0 0 249763 336249 0 0 -249763zm504660 619783c-56942,0 -105652,-9948 -146161,-29703 -40637,-19770 -72914,-45563 -97134,-77379 -24061,-31816 -41399,-65874 -51999,-102458 -10473,-36441 -15686,-72453 -15686,-108194 0,-35885 5213,-72056 15686,-108497 10600,-36584 27795,-70641 51999,-102458 24061,-31816 56338,-57609 97134,-77363 40652,-19770 89362,-29719 146161,-29719 56926,0 105652,9821 146289,29433 40652,19626 73088,45420 97308,77379 24061,31944 41384,66144 52000,102728 10457,36441 15686,72612 15686,108497 0,35741 -5229,71753 -15686,108194 -10616,36584 -27939,70642 -52159,102601 -24219,31816 -56640,57753 -97149,77380 -40494,19754 -89204,29559 -146289,29559zm143 -563445c-45579,0 -85325,10505 -119256,31403 -33914,21025 -59929,50029 -77856,87169 -18069,37140 -27064,79478 -27064,126996 0,47517 9122,89839 27223,127122 18070,37140 44069,66303 78142,87185 33931,20883 73518,31260 118811,31260 45277,0 84881,-10377 118811,-31260 34073,-20882 60073,-50045 78158,-87185 18086,-37283 27192,-79605 27192,-127122 0,-47518 -8963,-89856 -27033,-126996 -17958,-37140 -43942,-66144 -77872,-87169 -33914,-20898 -73677,-31403 -119256,-31403zm809681 -56338l522602 0 0 72310 -217740 0 0 531501 -86979 0 0 -531501 -217883 0 0 -72310zm603605 0l283471 0c38729,0 71754,6865 99088,20453 27351,13604 47979,31959 61869,54940 13890,22996 20930,48503 20930,76680 0,58865 -28701,101059 -86072,126280 33771,12905 61550,29433 83529,49473 21964,20183 33025,52715 33025,97833 0,32802 -8376,62806 -25269,89712 -16878,27048 -41988,48630 -75155,64475 -33342,15972 -72786,23965 -118207,23965l-277209 0 0 -603811zm86963 255643l156761 0c44085,0 77571,-7422 100424,-22138 22869,-14859 34232,-39953 34232,-75409 0,-29146 -10473,-51157 -31531,-66016 -21073,-14860 -55003,-22281 -102076,-22281l-157810 0 0 185844zm0 278369l185463 0c44530,0 78460,-9805 101615,-29432 23171,-19484 34820,-46533 34820,-80876 0,-67701 -50220,-101615 -150627,-101615l-171271 0 0 211923zm791611 85771c-56942,0 -105652,-9948 -146178,-29703 -40620,-19770 -72898,-45563 -97117,-77379 -24061,-31816 -41400,-65874 -52000,-102458 -10473,-36441 -15702,-72453 -15702,-108194 0,-35885 5229,-72056 15702,-108497 10600,-36584 27780,-70641 52000,-102458 24061,-31816 56338,-57609 97117,-77363 40653,-19770 89379,-29719 146178,-29719 56926,0 105636,9821 146288,29433 40653,19626 73089,45420 97293,77379 24061,31944 41399,66144 52015,102728 10442,36441 15686,72612 15686,108497 0,35741 -5244,71753 -15686,108194 -10616,36584 -27954,70642 -52158,102601 -24220,31816 -56656,57753 -97150,77380 -40493,19754 -89203,29559 -146288,29559zm143 -563445c-45579,0 -85326,10505 -119256,31403 -33914,21025 -59930,50029 -77856,87169 -18086,37140 -27065,79478 -27065,126996 0,47517 9122,89839 27224,127122 18069,37140 44069,66303 78142,87185 33914,20883 73518,31260 118811,31260 45277,0 84880,-10377 118795,-31260 34073,-20882 60088,-50045 78174,-87185 18069,-37283 27192,-79605 27192,-127122 0,-47518 -8964,-89856 -27049,-126996 -17943,-37140 -43926,-66144 -77856,-87169 -33915,-20898 -73677,-31403 -119256,-31403zm503913 548316l-86979 0 0 -603812 299331 0c38698,0 72485,7279 101473,21725 29003,14573 51268,34756 66652,60676 15384,25937 23012,55083 23012,87615 0,48074 -15702,89982 -47232,125581 -31371,35598 -79350,53398 -143905,53398l-212352 0 0 254817zm0 -324616l182920 0c87264,0 130905,-36155 130905,-108354 0,-67415 -42433,-101043 -127186,-101043l-186639 0 0 209397zm900997 -280038l86947 0 0 603811 -86947 0 0 -281579c-20644,7851 -53366,17799 -98500,29845 -45134,11920 -91142,17943 -138231,17943 -55290,0 -100265,-12333 -134799,-37140 -34518,-24808 -51697,-66716 -51697,-125867l0 -207013 86978 0 0 199448c0,61535 41527,92366 124628,92366 39905,0 80399,-5197 121353,-15702 40939,-10504 70975,-19198 90268,-26206l0 -249906zm699372 603811l-475211 0 0 -603811 469077 0 0 72310 -382114 0 0 185018 352380 0 0 72325 -352380 0 0 201833 388248 0 0 72325zm574920 -422162c-10759,-47248 -33485,-79891 -67844,-98119 -34391,-18086 -71897,-27192 -112692,-27192 -39588,0 -75457,9106 -107305,27335 -31975,18212 -57085,45277 -75600,81432 -18387,36027 -27652,79604 -27652,130904 0,76808 16734,138073 50203,183334 33485,45420 88028,68130 163341,68130 22854,0 46485,-4497 70848,-13604 24347,-8963 47073,-25936 67844,-50601 20915,-24664 35853,-58579 44976,-101472l84276 0c-10600,68114 -34057,119971 -70387,155300 -36313,35455 -73072,58022 -110419,67844 -37363,9948 -70991,14843 -100726,14843 -38109,0 -74280,-6023 -108655,-18212 -34216,-12063 -65016,-31117 -92350,-56911 -27494,-25920 -49012,-59421 -64857,-100630 -15844,-41208 -23775,-89712 -23775,-145494 0,-46532 6882,-89140 20629,-127678 13762,-38698 33628,-71913 59628,-99661 25999,-27891 57689,-49345 94908,-64475 37204,-15145 78890,-22710 125232,-22710 52444,0 98023,9106 136594,27335 38539,18355 68432,42464 89648,72596 21232,30147 34073,62663 38412,97706l-84277 0zm282295 422162l-86979 0 0 -603811 86979 0 0 292513 312029 -292513 120162 0 -268119 243883 275429 359928 -112978 0 -225369 -302891 -101154 90968 0 211923zm595373 -116061l1955 0 321739 -487750 103109 0 0 603811 -84276 0 0 -487766 -1796 0 -327143 487766 -97865 0 0 -603811 84277 0 0 487750zm1098412 116061l-86979 0 0 -603811 86979 0 0 292513 312029 -292513 120162 0 -268119 243883 275429 359928 -112978 0 -225369 -302891 -101154 90968 0 211923zm561443 -175768l-67241 175768 -89664 0 242103 -603811 98612 0 233140 603811 -95036 0 -63680 -175768 -258234 0zm226719 -72326l-94909 -265735 -1796 0 -103109 265735 199814 0zm610757 -355717l86962 0 0 603811 -86962 0 0 -281579c-20628,7851 -53351,17799 -98501,29845 -45118,11920 -91142,17943 -138231,17943 -55289,0 -100248,-12333 -134782,-37140 -34518,-24808 -51698,-66716 -51698,-125867l0 -207013 86963 0 0 199448c0,61535 41542,92366 124627,92366 39906,0 80415,-5197 121370,-15702 40938,-10504 70974,-19198 90252,-26206l0 -249906zm699388 603811l-475227 0 0 -603811 469092 0 0 72310 -382114 0 0 185018 352380 0 0 72325 -352380 0 0 201833 388249 0 0 72325zm574904 -422162c-10759,-47248 -33470,-79891 -67845,-98119 -34375,-18086 -71896,-27192 -112676,-27192 -39604,0 -75472,9106 -107305,27335 -31975,18212 -57085,45277 -75615,81432 -18388,36027 -27653,79604 -27653,130904 0,76808 16751,138073 50204,183334 33485,45420 88027,68130 163357,68130 22853,0 46469,-4497 70848,-13604 24347,-8963 47057,-25936 67844,-50601 20898,-24664 35853,-58579 44959,-101472l84293 0c-10616,68114 -34057,119971 -70387,155300 -36314,35455 -73073,58022 -110436,67844 -37362,9948 -70975,14843 -100709,14843 -38110,0 -74297,-6023 -108656,-18212 -34232,-12063 -65015,-31117 -92366,-56911 -27477,-25920 -48996,-59421 -64840,-100630 -15845,-41208 -23775,-89712 -23775,-145494 0,-46532 6881,-89140 20612,-127678 13763,-38698 33644,-71913 59628,-99661 26016,-27891 57705,-49345 94909,-64475 37220,-15145 78905,-22710 125247,-22710 52445,0 98024,9106 136578,27335 38555,18355 68448,42464 89665,72596 21232,30147 34073,62663 38411,97706l-84292 0zm89521 -181649l522602 0 0 72310 -217740 0 0 531501 -86963 0 0 -531501 -217899 0 0 -72310zm603605 0l283471 0c38729,0 71754,6865 99104,20453 27335,13604 47963,31959 61853,54940 13906,22996 20930,48503 20930,76680 0,58865 -28701,101059 -86072,126280 33771,12905 61550,29433 83530,49473 21963,20183 33024,52715 33024,97833 0,32802 -8376,62806 -25269,89712 -16862,27048 -41987,48630 -75155,64475 -33326,15972 -72786,23965 -118207,23965l-277209 0 0 -603811zm86979 255643l156745 0c44086,0 77571,-7422 100424,-22138 22869,-14859 34232,-39953 34232,-75409 0,-29146 -10473,-51157 -31531,-66016 -21073,-14860 -55003,-22281 -102076,-22281l-157794 0 0 185844zm0 278369l185447 0c44530,0 78460,-9805 101615,-29432 23171,-19484 34820,-46533 34820,-80876 0,-67701 -50219,-101615 -150627,-101615l-171255 0 0 211923zm986323 69799l-475227 0 0 -603811 469093 0 0 72310 -382131 0 0 185018 352380 0 0 72325 -352380 0 0 201833 388265 0 0 72325zm546059 -603811l86963 0 0 603811 -86963 0 0 -281722 -336249 0 0 281722 -86962 0 0 -603811 86962 0 0 249763 336249 0 0 -249763zm647389 0l86962 0 0 603811 -86962 0 0 -281722 -336249 0 0 281722 -86979 0 0 -603811 86979 0 0 249763 336249 0 0 -249763zm504660 619783c-56943,0 -105652,-9948 -146162,-29703 -40636,-19770 -72914,-45563 -97134,-77379 -24060,-31816 -41399,-65874 -51999,-102458 -10473,-36441 -15686,-72453 -15686,-108194 0,-35885 5213,-72056 15686,-108497 10600,-36584 27780,-70641 51999,-102458 24061,-31816 56339,-57609 97134,-77363 40637,-19770 89363,-29719 146162,-29719 56926,0 105636,9821 146288,29433 40653,19626 73089,45420 97309,77379 24061,31944 41383,66144 51999,102728 10457,36441 15686,72612 15686,108497 0,35741 -5229,71753 -15686,108194 -10616,36584 -27938,70642 -52158,102601 -24220,31816 -56640,57753 -97150,77380 -40493,19754 -89203,29559 -146288,29559zm143 -563445c-45580,0 -85326,10505 -119256,31403 -33914,21025 -59930,50029 -77857,87169 -18085,37140 -27064,79478 -27064,126996 0,47517 9122,89839 27223,127122 18070,37140 44070,66303 78143,87185 33930,20883 73518,31260 118811,31260 45277,0 84880,-10377 118794,-31260 34089,-20882 60089,-50045 78175,-87185 18085,-37283 27191,-79605 27191,-127122 0,-47518 -8963,-89856 -27048,-126996 -17943,-37140 -43927,-66144 -77857,-87169 -33914,-20898 -73676,-31403 -119255,-31403z"/>
  </g>
 </g>
</svg>
