<?xml version="1.0" encoding="UTF-8"?>
<!DOCTYPE svg PUBLIC "-//W3C//DTD SVG 1.1//EN" "http://www.w3.org/Graphics/SVG/1.1/DTD/svg11.dtd">
<!-- Creator: CorelDRAW X8 -->
<?xml-stylesheet href="ico_hall2.css" type="text/css"?>
<svg xmlns="http://www.w3.org/2000/svg" xml:space="preserve" width="155px" height="180px" version="1.1" style="shape-rendering:geometricPrecision; text-rendering:geometricPrecision; image-rendering:optimizeQuality; fill-rule:evenodd; clip-rule:evenodd"
viewBox="0 0 3157830 3656402"
 xmlns:xlink="http://www.w3.org/1999/xlink">
 <g id="Слой_x0020_1">
  <metadata id="CorelCorpID_0Corel-Layer"/>
  <g id="_2536778252016">
   <rect class="fil0" x="12" y="86" width="3157801" height="3656234" rx="121882" ry="124820"/>
   <path class="fil1" d="M2131590 0l121922 0 0 487275 -243775 0 0 -365422c0,-67024 54829,-121853 121853,-121853zm-2009737 3656402l792242 0 0 -3656402 -792242 0c-67024,0 -121853,54829 -121853,121853l0 3412696c0,67024 54829,121853 121853,121853zm914129 0l792236 0c67025,0 121853,-54829 121853,-121853l0 -3412696c0,-67024 -54828,-121853 -121853,-121853l-792236 0 0 3656402zm-387054 -1767240l121957 0c33518,0 60915,-27397 60915,-60909l0 -69c0,-33513 -27397,-60910 -60915,-60910l-121957 0c-33512,0 -60909,27397 -60909,60910l0 69c0,33512 27397,60909 60909,60909zm532781 0l121957 0c33512,0 60909,-27397 60909,-60909l0 -69c0,-33513 -27397,-60910 -60909,-60910l-121957 0c-33512,0 -60910,27397 -60910,60910l0 69c0,33512 27398,60909 60910,60909zm1854268 1767240l-904387 0c-67024,0 -121853,-54829 -121853,-121853l0 -801501 1148093 0 0 801501c0,67024 -54829,121853 -121853,121853zm-1026240 -956175l0 -2384 0 -177822c0,-67024 54829,-121853 121853,-121853l904387 0c67024,0 121853,54829 121853,121853l0 180206 -1148093 0zm513088 -58284l121957 0c33512,0 60909,-27397 60909,-60909l0 -69c0,-33512 -27397,-60909 -60909,-60909l-121957 0c-33512,0 -60909,27397 -60909,60909l0 69c0,33512 27397,60909 60909,60909zm-356652 341416l0 -121957c0,-33512 -27397,-60909 -60909,-60909l-69 0c-33512,0 -60909,27397 -60909,60909l0 121957c0,33512 27397,60909 60909,60909l69 0c33512,0 60909,-27397 60909,-60909zm-156436 -2436666l1148093 0 0 -44557 -1148093 0 0 44557zm904317 -546693l121923 0c67024,0 121853,54829 121853,121853l0 365422 -243776 0 0 -487275zm243776 561554l0 1639099c0,67024 -54829,121853 -121853,121853l-121923 0 0 -1760952 243776 0zm-545213 -561554c81259,0 162517,0 243776,0l0 487275 -243776 0 0 -487275zm243776 561554l0 1760952c-81259,0 -162517,0 -243776,0l0 -1760952 243776 0zm-545219 -561554c81264,0 162523,0 243781,0l0 487275 -243781 0 0 -487275zm243781 561554l0 1760952c-81258,0 -162517,0 -243781,0l0 -1760952 243781 0zm-301443 0l0 1760952 -121922 0c-67024,0 -121853,-54829 -121853,-121853l0 -1639099 243775 0z"/>
  </g>
 </g>
</svg>
