<?xml version="1.0" encoding="UTF-8"?>
<!DOCTYPE svg PUBLIC "-//W3C//DTD SVG 1.1//EN" "http://www.w3.org/Graphics/SVG/1.1/DTD/svg11.dtd">
<!-- Creator: CorelDRAW X8 -->
<svg xmlns="http://www.w3.org/2000/svg" xml:space="preserve" width="155px" height="180px" version="1.1" style="shape-rendering:geometricPrecision; text-rendering:geometricPrecision; image-rendering:optimizeQuality; fill-rule:evenodd; clip-rule:evenodd"
viewBox="0 0 15642417 18112275"
 xmlns:xlink="http://www.w3.org/1999/xlink">
 <defs>
  <style type="text/css">
   <![CDATA[
    .fil0 {fill:white}
    .fil1 {fill:#943D37}
   ]]>
  </style>
 </defs>
 <g id="Слой_x0020_1">
  <metadata id="CorelCorpID_0Corel-Layer"/>
  <g id="_2536784161072">
   <rect class="fil0" y="827" width="15642417" height="18111442" rx="603752" ry="618304"/>
   <path class="fil1" d="M603781 18112275l14434855 0c332182,0 603781,-271599 603781,-603781l0 -16904713c0,-332182 -271599,-603781 -603781,-603781l-14434855 0c-332182,0 -603781,271599 -603781,603781l0 16904713c0,332182 271599,603781 603781,603781zm10712255 -7037375l0 0zm0 -1330268l2405538 -2660194 -2405538 2660194zm0 -1047032l2405538 -2660166 -2405538 2660166zm-9482275 2377300l2405538 -2660194 -2405538 2660194zm0 -1330268l2405538 -2660194 -2405538 2660194zm0 -1047032l2405538 -2660166 -2405538 2660166zm12601294 8811066l603752 0 0 -16905057 -603752 0 -3597354 0 -603781 0 -4277948 0 -603780 0 -4144802 0 -603781 0 0 16905057 603781 0 4144802 0 603780 0 4277948 0 603781 0 3597354 0zm0 -16320101l0 15150361 -3597354 0 0 -15150361 3597354 0zm-4201135 0l0 15150361 -4277948 0 0 -15150361 4277948 0zm-4881728 0l0 15150361 -4144802 0 0 -15150361 4144802 0z"/>
  </g>
 </g>
</svg>
