<?xml version="1.0" encoding="UTF-8"?>
<!DOCTYPE svg PUBLIC "-//W3C//DTD SVG 1.1//EN" "http://www.w3.org/Graphics/SVG/1.1/DTD/svg11.dtd">
<!-- Creator: CorelDRAW X8 -->
<svg xmlns="http://www.w3.org/2000/svg" xml:space="preserve" width="155px" height="180px" version="1.1" style="shape-rendering:geometricPrecision; text-rendering:geometricPrecision; image-rendering:optimizeQuality; fill-rule:evenodd; clip-rule:evenodd"
viewBox="0 0 7496142 8679714"
 xmlns:xlink="http://www.w3.org/1999/xlink">
 <defs>
  <style type="text/css">
   <![CDATA[
    .fil0 {fill:white}
    .fil1 {fill:#943D37}
   ]]>
  </style>
 </defs>
 <g id="Слой_x0020_1">
  <metadata id="CorelCorpID_0Corel-Layer"/>
  <g id="_2536787362336">
   <rect class="fil0" x="14" y="205" width="7496115" height="8679315" rx="289328" ry="296302"/>
   <path class="fil1" d="M2186386 3737102l3123398 0 0 4942612 -3123398 0 0 -4942612zm-1897044 -1768215l1792901 0 0 -1968887 -1792901 0c-159187,0 -289342,130155 -289342,289342l0 1390203c0,159187 130155,289342 289342,289342zm6917417 0l-1792900 0 0 -1968887 1792900 0c159188,0 289342,130155 289342,289342l0 1390203c0,159187 -130154,289342 -289342,289342zm-3771014 -1968887l624680 0 0 1426425 1093192 0c85895,0 156167,81371 156167,180826l0 361663 -3123398 0 0 -361663c0,-99455 70271,-180826 156166,-180826l1093193 0 0 -1426425zm-1353475 8679714l-1796277 -206c-150603,-13 -285966,-124003 -285966,-287387l0 -4293383c0,-198909 140530,-361636 312320,-361636l1769923 0 0 4942612zm0 -2411034l-2082243 0 0 -120559 2082243 0 0 120559zm0 -1235635l-2082243 0 0 -120560 2082243 0 0 120560zm3331630 3646669l1790508 -14c170246,0 291734,-137919 291734,-289069l0 -4291893c0,-198909 -140556,-361636 -312319,-361636l-1769923 0 0 4942612zm0 -2411034l2082242 0 0 -120559 -2082242 0 0 120559zm0 -1235635l2082242 0 0 -120560 -2082242 0 0 120560zm-3227514 -1362538l3128606 0 0 -150699 -3128606 0 0 150699zm780832 1512102l1561720 0c143154,0 260282,135609 260282,301371l0 2245312c0,165748 -117128,301357 -260282,301357l-1561720 0c-143140,0 -260268,-135609 -260268,-301357l0 -2245312c0,-165762 117128,-301371 260268,-301371zm-260268 -1023591c86250,0 156180,80974 156180,180839 0,99864 -69930,180839 -156180,180839 -86251,0 -156180,-80975 -156180,-180839 0,-99865 69929,-180839 156180,-180839zm694090 0c86250,0 156180,80974 156180,180839 0,99864 -69930,180839 -156180,180839 -86251,0 -156180,-80975 -156180,-180839 0,-99865 69929,-180839 156180,-180839zm694090 0c86250,0 156180,80974 156180,180839 0,99864 -69930,180839 -156180,180839 -86251,0 -156180,-80975 -156180,-180839 0,-99865 69929,-180839 156180,-180839zm694090 0c86250,0 156180,80974 156180,180839 0,99864 -69930,180839 -156180,180839 -86251,0 -156180,-80975 -156180,-180839 0,-99865 69929,-180839 156180,-180839zm-1832431 1151723l1582592 0c85881,0 156166,81357 156166,180825l0 2230140c0,99468 -70285,180811 -156166,180811l-1582592 0c-85881,0 -156153,-81343 -156153,-180811l0 -2230140c0,-99468 70272,-180825 156153,-180825z"/>
  </g>
 </g>
</svg>
