<?xml version="1.0" encoding="UTF-8"?>
<!DOCTYPE svg PUBLIC "-//W3C//DTD SVG 1.1//EN" "http://www.w3.org/Graphics/SVG/1.1/DTD/svg11.dtd">
<!-- Creator: CorelDRAW X8 -->
<svg xmlns="http://www.w3.org/2000/svg" xml:space="preserve" width="110px" height="110px" version="1.1" style="shape-rendering:geometricPrecision; text-rendering:geometricPrecision; image-rendering:optimizeQuality; fill-rule:evenodd; clip-rule:evenodd"
viewBox="0 0 1303359 1298257"
 xmlns:xlink="http://www.w3.org/1999/xlink">
 <defs>
  <style type="text/css">
   <![CDATA[
    .str0 {stroke:#943D37;stroke-width:2554.3}
    .fil0 {fill:none}
    .fil1 {fill:#943D37}
   ]]>
  </style>
 </defs>
 <g id="Слой_x0020_1">
  <metadata id="CorelCorpID_0Corel-Layer"/>
  <g id="_2536787367616">
   <path id="Круг_x0020_внешний" class="fil0 str0" d="M651679 1277c359148,0 650403,290115 650403,647848 0,357740 -291255,647855 -650403,647855 -359147,0 -650402,-290115 -650402,-647855 0,-357733 291255,-647848 650402,-647848z"/>
   <path id="Блин" class="fil1 str0" d="M651143 29683c343524,0 622114,277122 622114,618839 0,341713 -278590,618835 -622114,618835 -343520,0 -622114,-277122 -622114,-618835 0,-341717 278594,-618839 622114,-618839zm0 209466c227246,0 411541,183320 411541,409373 0,226052 -184295,409376 -411541,409376 -227246,0 -411545,-183324 -411545,-409376 0,-226053 184299,-409373 411545,-409373zm-359238 736233l79488 -6902 28389 30327 -89458 4371 -14098 103617 -29486 -31497 15484 -90269 -295 -311 -51737 51538 -24105 -25747 105893 -105494 24109 25751 -44476 44308 292 308zm67183 174263l11631 -26955c10201,6584 19087,7781 26656,3574 7569,-4200 15678,-15792 24333,-34778l29532 -65752 99521 45709 -59875 138731 -31705 -14559 48244 -111775 -37849 -17385 -21829 47915c-11293,24739 -24145,39850 -38566,45341 -14414,5491 -31114,2135 -50093,-10066zm271346 -72392l35100 -1267 60418 149778 -36816 1328 -10425 -28064 -53419 1924 -8213 28734 -36575 1321 49930 -153754zm1796 97620l38007 -1371 -20800 -57104 -17207 58475zm253725 -53225l32197 -12752c4770,18873 3328,34976 -4328,48308 -7649,13334 -20314,23498 -37983,30497 -22251,8809 -41338,9279 -57257,1408 -15919,-7871 -28251,-23552 -36994,-47050 -9798,-26328 -10908,-48277 -3325,-65842 7579,-17562 21125,-30209 40624,-37929 19764,-7827 36675,-8907 50721,-3235 14048,5668 24306,15976 30765,30923l-31804 12594c-4291,-7908 -9614,-12922 -15963,-15058 -6352,-2132 -13653,-1568 -21896,1700 -9949,3935 -16419,11072 -19409,21393 -2990,10328 -1398,23793 4780,40403 5049,13955 12071,23957 21078,29995 9004,6040 18940,6908 29804,2607 8504,-3368 14267,-8477 17273,-15325 3014,-6845 3584,-14391 1717,-22637zm161675 -131372l23964 -25594c12051,15024 17341,30246 15866,45666 -1475,15423 -8786,30155 -21930,44201 -16559,17686 -33665,26431 -51317,26237 -17652,-195 -35251,-9027 -52802,-26512 -19667,-19590 -29663,-38998 -29988,-58223 -326,-19221 6768,-36588 21275,-52085 14713,-15714 29593,-24061 44647,-25050 15054,-986 28570,3885 40554,14615l-23666 25282c-7133,-5293 -14012,-7526 -20642,-6688 -6627,835 -13006,4529 -19144,11086 -7405,7907 -10341,17193 -8826,27849 1522,10663 8481,22174 20883,34530 10291,10452 20757,16455 31393,18001 10636,1548 19995,-1998 28077,-10633 6332,-6765 9460,-13901 9383,-21417 -77,-7518 -2652,-14601 -7727,-21265zm-729807 -612624l-101954 -46317 -359 554 76857 73930 -23669 26177 -107663 -103570 33273 -36810 98012 44744 -50107 -97737 33276 -36813 107667 103570 -23670 26183 -76850 -73934 -509 406 51904 101689 -16208 17928zm85801 -190729l64645 -32522 11890 25151 -64645 32526 14477 30614 75228 -37852 12537 26519 -106416 53543 -64535 -136494 104532 -52595 12537 26522 -73344 36897 13094 27691zm157944 -87104l2722 26756 35348 -3834c18966,-2059 33431,885 43406,8819 9970,7935 15725,19456 17264,34560 1538,15102 -2253,26998 -11377,35700 -9125,8696 -22329,13982 -39619,15856l-69858 7572 -15389 -151029 113780 -12336 2990 29341 -79267 8595zm5715 56097l3691 36250 28027 -3040c8783,-949 15135,-2987 19043,-6101 3916,-3118 5565,-7693 4948,-13734 -660,-6473 -3245,-11065 -7747,-13777 -4508,-2708 -10941,-3610 -19311,-2705l-28651 3107zm175101 -25050l70351 15427 -5645 27376 -70351 -15426 -6862 33320 81869 17950 -5944 28859 -115815 -25396 30608 -148542 113754 24943 -5943 28862 -79817 -17505 -6205 30132zm71638 108384l14729 -25288c9349,7817 18028,10116 26039,6898 8008,-3221 17428,-13703 28258,-31456l37078 -61555 93380 57881 -75818 130172 -29747 -18436 61092 -104884 -35515 -22010 -27330 44814c-14129,23133 -28674,36518 -43631,40155 -14957,3637 -31138,-1793 -48535,-16291zm286085 39856l-42662 33163 22023 30149c10519,14635 15051,28231 13593,40771 -1458,12544 -8179,23472 -20159,32784 -12742,9721 -24679,13207 -35814,10455 -11136,-2749 -22024,-11404 -32653,-25959l-42780 -58561 117572 -91392 20880 28590zm-65503 50919l-29224 22717 17719 24256c4385,6007 8910,9734 13566,11182 4663,1452 9567,178 14716,-3828 4954,-4032 7385,-8638 7288,-13817 -94,-5179 -2421,-10884 -6980,-17123l-17085 -23387z"/>
   <path id="Рука" class="fil1 str0" d="M351710 617116c0,-49346 84647,-83102 129803,-83102l12359 0 55511 7157 118 24805 -61860 -881c-32730,2976 -82519,-22801 -86481,26454 24765,-559 148341,-17682 148341,19181 0,13509 -2213,8427 -6182,25563l-12366 0c-606,-28352 1965,-29659 -24718,-31959l0 25563c0,14726 -4297,19181 -18544,19181l-98897 0c-18976,0 -37084,-5920 -37084,-25566l0 -6396zm458534 89793l99886 0c7324,0 13318,2547 13318,5675l0 0c0,3117 -5994,5672 -13318,5672l-99886 0c-7328,0 -13315,-2555 -13315,-5672l0 0c0,-3128 5987,-5675 13315,-5675zm-409084 -32258c34349,0 68782,8863 92189,6162 22905,-2642 62329,-28849 62329,6623 0,19416 -10723,21698 -24725,25570l0 -25570 -24718 0 0 19171c0,14327 -4894,14035 -12363,25573 -29015,0 -129803,2658 -129803,-25573l0 -6389c0,-14967 10264,-25567 24725,-25567l12366 0zm111249 83102l36227 -21078c4947,20033 7042,12829 7042,27464 0,11384 -9261,10492 -18537,12778l-5856 -19308 -18876 144zm0 0c0,22218 3778,38349 -18537,38349l-49450 0c-26887,0 -47238,-10821 -49447,-38349l117434 0zm469470 -153603c388,8162 610,16412 610,24671 0,73512 -15802,143182 -44003,205639l-178832 0 0 -51143 -24722 0c0,96668 -47452,102279 -142166,102279l-30903 0c5534,-21423 18547,-26173 18547,-44754 0,-27651 -12372,-25761 -12372,-44740 0,-12219 12372,-4358 12372,-25580 0,-19490 -5936,-25778 -13046,-38855l25402 -31449c13844,9587 21708,25563 37091,25563l18541 0c-11277,-43661 -69194,-26562 -68035,-134185 1056,-99517 -43222,-109050 -43222,-166247 0,-35737 12185,-89481 43269,-89481l18537 0c-3030,37650 -12359,13321 -12359,38341 0,3131 21993,66737 26800,74554 13828,22526 32670,31812 51961,48549 25232,21899 88120,79636 88120,119804l319 52440 30584 -7696 0 -38348c0,-14726 4305,-19178 18544,-19178l178963 -184zm-481829 255876l-49443 0c-16697,0 -17046,-3054 -30910,-6389 0,-20505 -1686,-31962 18534,-31962l74178 0c1603,19921 14901,38351 -12359,38351zm18407 -39049l7374 6856 3748 6811 1063 6684 3828 -7126 -5116 -11180c0,0 -11152,-2309 -10897,-2045z"/>
  </g>
 </g>
</svg>
