<?xml version="1.0" encoding="UTF-8"?>
<!DOCTYPE svg PUBLIC "-//W3C//DTD SVG 1.1//EN" "http://www.w3.org/Graphics/SVG/1.1/DTD/svg11.dtd">
<!-- Creator: CorelDRAW X8 -->
<svg xmlns="http://www.w3.org/2000/svg" xml:space="preserve" width="104px" height="16px" version="1.1" style="shape-rendering:geometricPrecision; text-rendering:geometricPrecision; image-rendering:optimizeQuality; fill-rule:evenodd; clip-rule:evenodd"
viewBox="0 0 8540608 1312369"
 xmlns:xlink="http://www.w3.org/1999/xlink">
 <defs>
  <style type="text/css">
   <![CDATA[
    .fil5 {fill:#FEFEFE}
    .fil3 {fill:#3B3872}
    .fil14 {fill:#B01E2D}
    .fil9 {fill:#192068}
    .fil12 {fill:#00337F}
    .fil10 {fill:#00A3DE}
    .fil13 {fill:#DFD9CE}
    .fil11 {fill:#D81E04}
    .fil4 {fill:#FEFEFE;fill-rule:nonzero}
    .fil6 {fill:#2B2A29;fill-rule:nonzero}
    .fil2 {fill:#E42129;fill-rule:nonzero}
    .fil1 {fill:#EF8425;fill-rule:nonzero}
    .fil8 {fill:#F29A2A;fill-rule:nonzero}
    .fil0 {fill:#3B3872;fill-rule:nonzero}
    .fil7 {fill:#3C3485;fill-rule:nonzero}
   ]]>
  </style>
 </defs>
 <g id="Слой_x0020_1">
  <metadata id="CorelCorpID_0Corel-Layer"/>
  <g id="_2536787359552">
   <g>
    <g>
     <polygon class="fil0" points="0,0 0,1312369 2089714,1312369 2089714,0 "/>
     <path class="fil1" d="M851096 657975c0,-321722 260758,-582456 582457,-582456 321698,0 582386,260734 582386,582456 0,321605 -260688,582410 -582386,582410 -321699,0 -582457,-260805 -582457,-582410z"/>
     <path class="fil2" d="M1043404 224417c279,0 -30482,26599 -51105,52686l103675 0c0,0 35411,38294 48524,67218l-202537 0c0,0 -19601,30831 -32668,56918l267896 0c0,0 24483,45828 29808,70032l-325721 0c0,0 -11207,31737 -15857,55081l356598 -465c9788,44804 33551,174986 -15439,318792l-323930 419c5185,17229 14020,40619 22414,57824l278196 0c-11231,23391 -27599,52757 -36923,67567l-203956 140c10765,16322 28041,41991 39224,53709l125578 -70c-23553,32552 -63498,66265 -63498,66265l-1000 0 1279 419c-103117,92910 -239739,149433 -389498,149433 -321721,0 -582456,-260805 -582456,-582410 0,-321722 260735,-582456 582456,-582456 149456,0 285846,56290 388940,148898z"/>
     <path class="fil0" d="M756117 575249l-9394 52407 -51082 -1325c0,0 -25552,6742 -25552,17461 0,10742 18810,24204 47036,36341 28273,12090 29598,45618 26901,68497 -2674,22856 -6719,70264 -88725,72589 -47036,1349 -72519,-8068 -72519,-8068l10695 -53756c0,0 60499,16159 73961,6720 13393,-9417 29552,-25553 4023,-36295 -25553,-10719 -67219,-28203 -67219,-71217 0,-43014 17532,-67218 44386,-79332 26855,-12021 73915,-10742 107489,-4022z"/>
     <polygon class="fil0" points="352366,814988 292937,814988 327488,610846 254062,813802 213047,813802 203119,602685 167220,814988 111023,814988 164011,503334 232159,503334 255992,682807 335277,503334 405262,503334 "/>
     <path class="fil0" d="M809222 819382c-19392,0 -33179,-4394 -41480,-12439 -8207,-8766 -12416,-21925 -12416,-38759 0,-4394 442,-8696 954,-12463 441,-4394 1348,-9393 1813,-14973l35713 -199515 55686 0 -8068 38991 52035 0 -8719 49269 -52058 0 -14276 84982c-884,5626 -1837,11206 -2744,17507 -953,5604 -1395,11254 -1395,14997 0,8742 1395,14323 5045,17462 3256,3115 8789,5022 16160,5022 2743,0 6417,-628 11044,-1907 4627,-1837 8742,-3115 11486,-5022l4627 0 -8812 49966c-6394,2488 -12811,3743 -19717,4976 -6905,1325 -15206,1906 -24878,1906z"/>
     <path class="fil0" d="M1208903 645861c-12090,-9416 -39224,-7510 -44874,11765l-26715 157362 -55686 0 40061 -234764 55709 0 -1185 18926c10602,-10648 22437,-19577 52314,-18693 1837,46 -18043,34876 -19624,65404z"/>
     <path class="fil0" d="M1314160 821289c-30784,0 -55198,-10626 -71776,-31273 -17089,-20553 -25320,-50547 -25320,-89306 0,-30552 3674,-58104 10998,-83052 7347,-24902 17973,-46176 30900,-64358 12812,-17438 28087,-31226 46037,-41177 17461,-9998 36387,-14997 56197,-14997 15648,0 30366,2464 44177,6859 6719,2302 19507,8440 19507,8440l-12904 73984c-6464,-8231 -12927,-14625 -19531,-19345 -9672,-6231 -21204,-9951 -34016,-9951 -23064,0 -41898,12439 -56708,37434 -15206,24994 -22507,56848 -22507,95537 0,25018 4162,43177 12392,54361 8278,10625 20298,16252 35900,16252 14322,0 27691,-3720 40061,-11253 5975,-3883 11765,-7929 17345,-12602l-12951 70706c0,0 -6719,3278 -9881,4371 -7836,3069 -14765,4975 -20694,6882 -6510,1279 -15671,2488 -27226,2488z"/>
     <path class="fil0" d="M489476 806943c-2325,1860 -4627,3116 -6440,4301 -6045,3186 -11091,5650 -16136,7557 -5092,1279 -12021,2488 -21182,2488 -14299,0 -26227,-5650 -35015,-16253 -9231,-11183 -13811,-25599 -13811,-43060 0,-18740 3231,-34388 9695,-47501 6417,-12533 16090,-23158 28994,-30575 11974,-7487 26227,-12509 42363,-15648l11532 -1907c13370,-2488 27157,-4324 42363,-4975 0,-1256 0,-2511 419,-4348 465,-1907 465,-3744 465,-6255 0,-9998 -3186,-16857 -10138,-21274 -6905,-3744 -16996,-5580 -30365,-5580l-2744 0c-8300,581 -17531,2487 -27668,6231 -11021,4394 -19322,7487 -24902,10625l-4999 0 8254 -55592c6464,-2511 16578,-4953 29901,-7487 6487,-1883 12974,-2488 19414,-3139 6906,-1255 14253,-1255 21159,-1255 27157,0 46943,4975 59894,14369 12834,9416 18856,24390 18856,44967 0,2534 0,6231 -488,10672 -419,4394 -884,8091 -1349,11811l-27180 159873 -55267 0 4185 -24972c-3232,3139 -7859,6883 -12486,11277 -2720,1837 -5045,3743 -7324,5650zm0 -97444l0 0c-5998,1279 -11090,3115 -15206,4976 -6463,3138 -11044,7463 -14299,13113 -3650,5673 -5092,13160 -5092,22484 0,8137 2279,13718 6510,16856 4581,3186 10556,5023 19322,5023 2767,0 5510,-582 8765,-1837 2744,-651 5488,-1930 8743,-3186 5952,-3696 11927,-8137 17461,-13113l8324 -49943c-9696,1232 -19345,2488 -27622,4418 -2302,0 -4627,558 -6906,1209z"/>
     <path class="fil0" d="M971071 620820c-7394,1186 -14276,4929 -19810,11230 -7859,8719 -13811,19973 -17950,34946l37760 0 37294 0c0,-2487 442,-4394 442,-6882 0,-1837 465,-4301 465,-6231 0,-11277 -2744,-19345 -7836,-25646 -5068,-5533 -11904,-8696 -21623,-8696 -2767,0 -6022,628 -8742,1279zm0 147364l0 0 8300 0c11951,0 23460,-2465 34481,-8138 10602,-5650 20252,-11881 28110,-18740l6487 0 -10625 60615c-10603,6254 -22135,11230 -34063,14322 -10137,3139 -21228,4395 -32690,5046l-5069 0c-29947,0 -52524,-8789 -68613,-26878 -16136,-17485 -23949,-41852 -23949,-73054 0,-21205 2721,-41224 7813,-58755 5068,-18089 12904,-33690 22599,-47432 9626,-13136 21135,-23111 35435,-31249 10091,-4952 20739,-8719 31784,-10625 5045,-582 10067,-582 15206,-582 25762,0 45083,6859 58452,21275 12881,13671 19368,34923 19368,62382 0,9416 -535,18763 -1883,28133 -1372,8719 -3209,18113 -5534,26855l-85609 0 -43317 0 0 2465 0 2534c0,16229 4627,28761 12928,38038 6905,7580 17066,12532 30389,13788z"/>
     <path class="fil0" d="M1492959 806943c-2372,1860 -4651,3116 -6906,4301 -5580,3186 -11091,5650 -16159,7557 -5046,1279 -12021,2488 -20740,2488 -14741,0 -26273,-5650 -35411,-16253 -9207,-11183 -13439,-25599 -13439,-43060 0,-18740 3302,-34388 9765,-47501 6348,-12533 16113,-23158 28506,-30575 11997,-7487 26273,-12509 42781,-15648 3744,-651 7394,-1256 11603,-1907 12811,-2488 27133,-4324 41874,-4975 442,-1256 442,-2511 954,-4348 0,-1907 418,-3744 418,-6255 0,-9998 -3674,-16857 -10137,-21274 -6929,-3744 -16997,-5580 -30412,-5580l-2697 0c-8859,581 -17997,2487 -27692,6231 -11044,4394 -19252,7487 -24832,10625l-5069 0 7813 -55592c6463,-2511 16577,-4953 30388,-7487 6441,-1883 12928,-2488 19392,-3139 6882,-1255 13764,-1255 21158,-1255 27134,0 46943,4975 59894,14369 12393,9416 18833,24390 18833,44967 0,2534 0,6231 -488,10672 -488,4394 -907,8091 -1349,11811l-27180 159873 -55267 0 4185 -24972c-3674,3139 -7905,6883 -12904,11277l-6882 5650zm0 -97444l0 0c-6022,1279 -11114,3115 -15718,4976 -5952,3138 -10974,7463 -14299,13113 -3186,5673 -5069,13160 -5069,22484 0,8137 2348,13718 6975,16856 4092,3186 10556,5023 18833,5023 2814,0 6022,-582 9278,-1837 2697,-651 5464,-1930 8230,-3186 6418,-3696 12021,-8137 17485,-13113l8742 -49943c-10114,1232 -19298,2488 -28110,4418 -2255,0 -4511,558 -6347,1209z"/>
     <path class="fil0" d="M1727885 645861c-12184,-9416 -39247,-7510 -44897,11765l-26669 157362 -55663 0 39992 -234764 55709 0 -1186 18926c10602,-10648 22437,-19577 52314,-18693 1837,46 -18112,34876 -19600,65404z"/>
     <path class="fil3" d="M1837327 630144c-2767,1255 -5511,3162 -7859,5022 -7324,4952 -13300,12532 -18392,21205 -4115,8719 -7789,18763 -10114,31877 -2790,12462 -4208,25017 -4208,36852 0,14369 2790,24344 7440,30621 5022,6813 12393,9998 22158,9998 3627,0 7301,-697 10975,-2487 1836,-698 3231,-1256 5045,-2535 5603,-3139 10672,-6301 15624,-10625l19810 -115534c-3162,-1906 -6812,-3697 -11951,-5045 -4627,-1837 -8719,-2488 -12369,-2488 -6045,0 -11114,1232 -16159,3139zm0 172405l0 0c-4093,3766 -8720,7510 -13788,10602 -4627,2488 -9208,5022 -13346,6231 -4650,1256 -10184,1907 -16113,1907 -17136,0 -30482,-7557 -40596,-21902 -9603,-14951 -14648,-36155 -14648,-63080 0,-22483 2255,-43735 7743,-63079 5068,-19345 12462,-36853 21716,-51803 9207,-14974 19810,-26227 32202,-35016 11951,-8138 23949,-12462 36830,-13113l1836 0c9696,0 17973,1255 24855,3743 6976,2534 14323,6882 21670,12532l12370 -81913 55662 0 -51035 307330 -55663 0 4185 -24297c-5161,4394 -9695,8114 -13880,11858z"/>
     <path class="fil4" d="M767370 566878l-9440 52384 -51082 -1302c0,0 -25529,6673 -25529,17438 0,10742 18810,24205 47013,36295 28273,12114 29598,45665 26901,68543 -2674,22856 -6719,70241 -88725,72590 -47036,1348 -72566,-8045 -72566,-8045l10719 -53779c0,0 60545,16159 73984,6696 13416,-9394 29575,-25530 3999,-36271 -25529,-10742 -67195,-28273 -67195,-71218 0,-42967 17462,-67195 44340,-79332 26878,-12067 73914,-10765 107581,-3999z"/>
     <polygon class="fil4" points="363503,806641 304121,806641 338671,602406 265245,805408 224231,805408 214373,594268 178427,806641 122206,806641 175172,494964 243320,494964 267198,674413 346484,494964 416469,494964 "/>
     <path class="fil4" d="M820405 810989c-19298,0 -33155,-4348 -41456,-12486 -8324,-8742 -12439,-21879 -12439,-38689 0,-4418 488,-8743 907,-12533 534,-4324 1395,-9323 1906,-14973l35690 -199422 55756 0 -8161 38898 52058 0 -8742 49315 -52035 0 -14276 85028c-930,5534 -1837,11161 -2767,17392 -907,5673 -1372,11300 -1372,15020 0,8742 1372,14392 5045,17508 3256,3092 8743,5022 16090,5022 2813,0 6487,-697 11067,-1930 4651,-1836 8789,-3092 11533,-4999l4627 0 -8789 50013c-6417,2488 -12858,3743 -19740,4952 -6952,1233 -15206,1884 -24902,1884z"/>
     <path class="fil4" d="M1220133 637445c-12137,-9394 -39247,-7487 -44874,11788l-26738 157408 -55663 0 40062 -234857 55662 0 -1139 18950c10625,-10603 22390,-19601 52198,-18648 1930,47 -18066,34877 -19508,65359z"/>
     <path class="fil4" d="M1325367 812895c-30854,0 -55268,-10579 -71776,-31249 -17066,-20577 -25366,-50547 -25366,-89306 0,-30645 3720,-58127 11044,-83099 7370,-24994 17996,-46176 30830,-64335 12905,-17438 28157,-31202 46130,-41177 17368,-10044 36341,-15020 56104,-15020 15648,0 30436,2511 44247,6929 6649,2255 19530,8347 19530,8347l-12950 74077c-6441,-8231 -12905,-14718 -19485,-19391 -9695,-6208 -21228,-10021 -34109,-10021 -23018,0 -41898,12532 -56639,37526 -15159,24995 -22576,56872 -22576,95561 0,24972 4162,43131 12462,54338 8278,10579 20229,16252 35923,16252 14253,0 27599,-3837 40084,-11254 5859,-3882 11626,-7975 17299,-12601l-12974 70659c0,0 -6696,3278 -9905,4394 -7789,3116 -14671,4976 -20670,6813 -6464,1232 -15671,2557 -27203,2557z"/>
     <path class="fil4" d="M500637 798503c-2302,1907 -4627,3116 -6418,4394 -5998,3116 -11067,5604 -16159,7441 -5045,1232 -11951,2557 -21158,2557 -14276,0 -26250,-5650 -34969,-16252 -9184,-11300 -13811,-25646 -13811,-43084 0,-18740 3185,-34365 9626,-47432 6487,-12578 16089,-23204 29063,-30667 11951,-7464 26204,-12440 42363,-15602l11463 -1883c13369,-2511 27203,-4325 42386,-5022 0,-1232 0,-2488 465,-4348 442,-1837 442,-3767 442,-6255 0,-9974 -3255,-16856 -10138,-21251 -6905,-3720 -17042,-5580 -30365,-5580l-2790 0c-8278,605 -17485,2488 -27622,6231 -10998,4395 -19345,7487 -24902,10626l-4999 0 8254 -55570c6441,-2511 16578,-5022 29947,-7486 6418,-1930 12904,-2511 19322,-3162 6952,-1256 14252,-1256 21204,-1256 27227,0 46944,5022 59848,14369 12881,9370 18880,24390 18880,44967 0,2511 0,6231 -419,10672 -535,4371 -953,8138 -1441,11858l-27111 159873 -55337 0 4162 -24995c-3232,3116 -7789,6882 -12416,11254 -2790,1836 -5068,3743 -7370,5603zm0 -97398l0 0c-5999,1256 -11044,3093 -15206,5022 -6418,3070 -11044,7417 -14253,13067 -3697,5674 -5069,13114 -5069,22484 0,8161 2325,13718 6417,16857 4627,3115 10626,5022 19392,5022 2720,0 5510,-628 8719,-1907 2790,-581 5533,-1836 8789,-3115 5952,-3744 11950,-8138 17461,-13114l8277 -49966c-9649,1256 -19321,2535 -27575,4395 -2372,0 -4650,604 -6952,1255z"/>
     <path class="fil4" d="M982208 612380c-7324,1279 -14253,4999 -19740,11207 -7836,8789 -13834,20019 -17996,35016l37736 0 37364 0c0,-2488 442,-4395 442,-6882 0,-1837 465,-4348 465,-6185 0,-11323 -2790,-19391 -7836,-25692 -5045,-5557 -11974,-8673 -21646,-8673 -2791,0 -5953,558 -8789,1209zm0 147434l0 0 8300 0c12021,0 23484,-2511 34598,-8161 10532,-5650 20251,-11858 28040,-18741l6417 0 -10556 60569c-10579,6347 -22111,11300 -34062,14415 -10114,3093 -21205,4371 -32737,4999l-4999 0c-29924,0 -52547,-8742 -68637,-26854 -16136,-17532 -23994,-41875 -23994,-73078 0,-21251 2813,-41200 7858,-58755 5046,-18089 12928,-33713 22577,-47478 9649,-13067 21181,-23065 35457,-31202 10161,-4976 20740,-8719 31738,-10626 5045,-581 10137,-581 15229,-581 25808,0 45130,6812 58499,21181 12881,13765 19368,34993 19368,62522 0,9347 -465,18717 -1837,28133 -1418,8673 -3255,18066 -5580,26785l-85679 0 -43247 0 0 2488 0 2488c0,16252 4627,28761 12881,38085 6952,7556 17066,12532 30366,13811z"/>
     <path class="fil4" d="M1504096 798503c-2302,1907 -4627,3116 -6883,4394 -5533,3116 -11044,5604 -16089,7441 -5069,1232 -12021,2557 -20740,2557 -14764,0 -26273,-5650 -35434,-16252 -9254,-11300 -13416,-25646 -13416,-43084 0,-18740 3209,-34365 9742,-47432 6394,-12578 16043,-23204 28576,-30667 11904,-7464 26203,-12440 42735,-15602 3720,-674 7370,-1255 11509,-1883 12904,-2511 27226,-4325 41967,-5022 419,-1232 419,-2488 861,-4348 0,-1837 488,-3767 488,-6255 0,-9974 -3650,-16856 -10184,-21251 -6882,-3720 -17019,-5580 -30342,-5580l-2790 0c-8743,605 -17927,2488 -27576,6231 -11090,4395 -19368,7487 -24878,10626l-5046 0 7836 -55570c6440,-2511 16508,-5022 30366,-7486 6463,-1930 12834,-2511 19298,-3162 6975,-1256 13787,-1256 21204,-1256 27227,0 46944,5022 59918,14369 12393,9370 18833,24390 18833,44967 0,2511 0,6231 -419,10672 -534,4371 -953,8138 -1488,11858l-27110 159873 -55314 0 4255 -24995c-3766,3116 -7859,6882 -12904,11254l-6975 5603zm0 -97398l0 0c-5952,1256 -10998,3093 -15625,5022 -5929,3070 -11067,7417 -14229,13067 -3302,5674 -5139,13114 -5139,22484 0,8161 2325,13718 6952,16857 4092,3115 10579,5022 18857,5022 2720,0 6045,-628 9184,-1907 2790,-581 5557,-1836 8277,-3115 6440,-3744 11974,-8138 17531,-13114l8719 -49966c-10114,1256 -19321,2535 -28110,4395 -2255,0 -4511,604 -6417,1255z"/>
     <path class="fil4" d="M1739138 637445c-12183,-9394 -39294,-7487 -44920,11788l-26669 157408 -55709 0 40038 -234857 55662 0 -1139 18950c10556,-10603 22391,-19601 52291,-18648 1837,47 -18112,34877 -19554,65359z"/>
     <path class="fil5" d="M1848533 621750c-2790,1256 -5487,3162 -7812,4999 -7440,4999 -13369,12532 -18415,21275 -4185,8672 -7858,18717 -10114,31830 -2813,12486 -4185,25018 -4185,36853 0,14392 2767,24366 7301,30574 5185,6859 12486,10022 22181,10022 3744,0 7394,-675 11044,-2512 1837,-651 3232,-1232 5069,-2464 5511,-3162 10556,-6324 15625,-10649l19786 -115533c-3209,-1907 -6882,-3813 -11928,-5046 -4650,-1837 -8742,-2441 -12462,-2441 -5975,0 -11021,1186 -16090,3092zm0 172428l0 0c-4161,3744 -8788,7441 -13834,10603 -4580,2464 -9161,4952 -13299,6208 -4674,1278 -10184,1906 -16113,1906 -17113,0 -30482,-7510 -40596,-21879 -9626,-14973 -14718,-36225 -14718,-63102 0,-22484 2256,-43735 7836,-63080 5045,-19298 12416,-36853 21646,-51780 9254,-15043 19787,-26273 32179,-34992 12021,-8138 23995,-12462 36899,-13160l1837 0c9626,0 17973,1256 24902,3743 6859,2488 14299,6883 21600,12509l12393 -81866 55709 0 -51059 307353 -55686 0 4092 -24367c-5045,4325 -9672,8138 -13788,11904z"/>
    </g>
   </g>
   <g>
    <g>
     <polygon class="fil6" points="2220965,0 4222303,0 4222303,1312369 2220965,1312369 "/>
     <polygon class="fil4" points="2279697,1253615 4163571,1253615 4163571,58755 2279697,58755 "/>
     <polygon class="fil7" points="2360168,408284 4077799,408284 4077799,158036 2360168,158036 "/>
     <polygon class="fil8" points="2360168,1163750 4077799,1163750 4077799,913478 2360168,913478 "/>
     <path class="fil4" d="M4029740 1104344c-1907,-2348 -4790,-3348 -7580,-3348l-15973 0 0 38039 3696 0 0 -16323 8115 0 11067 16323 4557 0 -10788 -16323c2209,279 4534,-418 6324,-2069 1791,-1674 3046,-4301 3209,-7370 186,-3093 -721,-6604 -2627,-8929zm-19857 13997l0 0 0 -12788 10928 0c1535,0 3186,-93 4395,1000 1209,1116 1906,2976 1999,5022 70,2023 -488,4232 -1697,5534 -1232,1302 -3046,1232 -4697,1232l-10928 0zm25018 -26668l0 0c-4789,-2767 -10323,-4232 -15834,-4232 -5533,0 -11067,1465 -15833,4232 -4790,2766 -8836,6812 -11603,11602 -2766,4766 -4254,10300 -4254,15834 0,5510 1488,11044 4254,15833 2767,4790 6813,8836 11603,11579 4766,2767 10300,4255 15833,4255 5511,0 11045,-1488 15834,-4255 4767,-2743 8812,-6789 11579,-11579 2767,-4789 4255,-10323 4255,-15833 0,-5534 -1488,-11068 -4255,-15834 -2767,-4790 -6812,-8836 -11579,-11602zm6906 14322l0 0c2302,3976 3534,8580 3534,13183 0,4604 -1232,9208 -3534,13207 -2279,3976 -5650,7347 -9649,9649 -3976,2302 -8580,3534 -13184,3534 -4603,0 -9207,-1232 -13183,-3534 -3999,-2302 -7370,-5673 -9672,-9649 -2302,-3999 -3534,-8603 -3534,-13207 0,-4603 1232,-9207 3534,-13183 2302,-3976 5673,-7347 9672,-9649 3976,-2302 8580,-3534 13183,-3534 4604,0 9208,1232 13184,3534 3999,2302 7370,5673 9649,9649z"/>
     <path class="fil7" d="M2961690 480548l88120 0 -239088 388289 -103977 0 -9394 -307237c-418,-13950 -790,-28366 -6068,-39526 -5255,-11137 -13509,-18949 -24483,-24390 -10975,-5441 -24646,-8510 -38178,-8324l0 -8812 171544 0 8394 264315 153130 -264315z"/>
     <polygon class="fil7" points="3066853,868837 3189618,480548 3080362,480548 2957574,868837 "/>
     <path class="fil7" d="M3130282 835937c16601,16833 37968,28552 67171,34341 29180,5766 66172,5580 101257,-395 35086,-5999 68265,-17787 91702,-35667 23460,-17880 37155,-41828 43828,-67753 6696,-25924 6324,-53849 -7743,-75635 -14090,-21786 -41875,-37433 -64986,-52198 -23135,-14741 -41573,-28621 -49245,-44223 -7673,-15601 -4534,-32946 4441,-44060 8974,-11137 23808,-16020 42037,-17182 18229,-1140 39875,1488 57825,6533 17950,5022 32226,12463 44432,22484l36434 -58151c-16926,-12090 -36132,-20693 -63265,-27017 -27134,-6324 -62196,-10393 -92655,-8138 -30482,2255 -56383,10835 -79308,26018 -22949,15206 -42921,36992 -54151,60498 -11207,23484 -13672,48664 -6790,70450 6859,21763 23065,40131 39782,53315 16741,13159 33970,21111 49129,30249 15137,9114 28180,19391 35202,31714 7022,12323 7998,26715 -465,38620 -8440,11927 -26343,21414 -46943,24785 -20600,3395 -43921,651 -65614,-5929 -21693,-6580 -41759,-17020 -59150,-30784l-22925 68125z"/>
     <path class="fil7" d="M3539217 778972l-49431 89865 -88121 0 234392 -388289 99281 0 33481 388289 -103397 0 -7254 -89865 -118951 0zm103722 -188541l0 0 -75914 138017 87051 0 -11137 -138017z"/>
     <path class="fil7" d="M3804741 487500c-1883,-2325 -4766,-3325 -7556,-3325l-15997 0 0 38038 3720 0 0 -16322 8092 0 11090 16322 4534 0 -10788 -16322c2209,279 4557,-418 6347,-2069 1791,-1674 3046,-4301 3209,-7370 163,-3093 -744,-6604 -2651,-8952zm-19833 14020l0 0 0 -12788 10928 0c1535,0 3162,-93 4371,1000 1210,1116 1930,2976 2023,5022 70,2023 -488,4232 -1697,5534 -1232,1302 -3046,1232 -4697,1232l-10928 0zm24995 -26668l0 0c-4790,-2767 -10300,-4255 -15834,-4255 -5510,0 -11044,1488 -15834,4255 -4789,2766 -8835,6812 -11578,11602 -2767,4766 -4255,10300 -4255,15834 0,5510 1488,11044 4255,15833 2743,4790 6789,8812 11578,11579 4790,2767 10324,4255 15834,4255 5534,0 11044,-1488 15834,-4255 4790,-2767 8835,-6789 11602,-11579 2767,-4789 4232,-10323 4232,-15833 0,-5534 -1465,-11068 -4232,-15834 -2767,-4790 -6812,-8836 -11602,-11602zm6929 14322l0 0c2302,3976 3534,8580 3534,13183 0,4604 -1232,9208 -3534,13183 -2302,4000 -5673,7371 -9649,9673 -3999,2302 -8580,3534 -13184,3534 -4603,0 -9207,-1232 -13206,-3534 -3976,-2302 -7347,-5673 -9649,-9673 -2302,-3975 -3534,-8579 -3534,-13183 0,-4603 1232,-9207 3534,-13183 2302,-3999 5673,-7347 9649,-9649 3999,-2302 8603,-3534 13206,-3534 4604,0 9185,1232 13184,3534 3976,2302 7347,5650 9649,9649z"/>
    </g>
   </g>
   <g>
    <polygon class="fil9" points="4353531,1312369 6428783,1312369 6428783,0 4353531,0 "/>
    <path class="fil10" d="M5390052 1074467c115045,-103885 187634,-254643 187634,-422188 0,-167546 -72589,-318327 -187634,-423305 -100536,-91585 -234554,-147433 -381988,-147433 -314978,0 -570761,255759 -570761,570738 0,314955 255783,569621 570761,569621 147434,0 281452,-55848 381988,-147433z"/>
    <path class="fil10" d="M5390052 1074467c115045,-103885 187634,-254643 187634,-422188 0,-167546 -72589,-318327 -187634,-423305l0 845493z"/>
    <path class="fil11" d="M5773156 81541c-147433,0 -281474,55848 -383104,147433 -20112,18973 -39108,39085 -56964,60313l115045 0c15624,18972 30156,40200 43549,60312l-202166 0c-12277,20112 -23460,40201 -33505,60313l268059 0c8952,20112 17880,40201 24576,60313l-316095 0c-6696,20088 -12276,40200 -16740,61428l349599 0c7812,37969 12276,79309 12276,120626 0,62544 -10044,123973 -29040,180937l-316095 0c6720,20112 14532,40201 23460,60313l268059 0c-10044,20112 -20089,41317 -32388,60313l-202166 0c13415,21228 27924,41316 43572,60312l115045 0c-17880,21228 -36876,41340 -58081,60313 101630,91585 235671,147433 383104,147433 314956,0 569622,-254643 569622,-569621 0,-314979 -254666,-570738 -569622,-570738z"/>
    <path class="fil11" d="M6270189 969490c0,-10068 7812,-17880 17857,-17880 10067,0 17879,7812 17879,17880 0,10044 -7835,18972 -17879,18972 -10045,0 -17857,-8928 -17857,-18972zm17857 14508c7812,0 14531,-6696 14531,-14508 0,-7836 -6719,-13416 -14531,-13416 -7813,0 -14509,5580 -14509,13416 0,7812 6696,14508 14509,14508zm-2233 -6696l-4464 0 0 -15648 6697 0c2232,0 3348,0 4464,1116 1116,0 2232,2232 2232,3348 23,2256 -1116,3372 -2232,4488l2255 6696 -4487 0 -2232 -5580 -2233 0 0 5580zm0 -8928l2233 0c0,0 1116,0 2232,0 0,0 1116,-1117 1116,-2256 0,0 -1116,-1116 -1116,-1116 -1116,-1116 -2232,-1116 -2232,-1116l-2233 0 0 4488z"/>
    <polygon class="fil9" points="4918712,810872 4847215,810872 4889671,588618 4792483,810872 4732170,810872 4719894,589734 4672974,810872 4608197,810872 4662929,521609 4775742,521609 4776858,700292 4855051,521609 4974560,521609 "/>
    <path class="fil9" d="M5711727 807524c-20112,5581 -34643,7813 -51384,7813 -35736,0 -55848,-17857 -55848,-51361 0,-6720 1116,-14532 2232,-21228l4464 -23461 3348 -17856 32412 -179822 70357 0 -10045 53593 35737 0 -8952 56965 -36852 0 -18973 98304c0,4464 -1139,7812 -1139,10044 23,12277 7835,16764 24576,16764 7812,-23 14532,0 18996,-2255l-8929 52500z"/>
    <path class="fil9" d="M5430253 650047c0,29040 16764,50268 53616,64776 30157,12277 34621,15648 34621,26808 0,14509 -13393,21228 -41317,21228 -22344,0 -41340,-3348 -64800,-10067l-10044 54732 3348 0 13416 2232c4464,1116 10044,2232 18972,2232 16764,1117 30156,2233 39108,2233 75937,0 110558,-24553 110558,-78170 23,-32388 -14509,-51384 -50245,-65893 -30157,-11183 -33505,-14531 -33505,-25692 0,-12299 12277,-18996 34621,-18996 14508,0 33504,1116 52477,3349l10067 -53617c-18995,-3348 -46920,-5580 -63660,-5580 -80425,0 -108349,36876 -107233,80425z"/>
    <path class="fil9" d="M5148778 810872l-59196 0 1139 -24576c-17880,18996 -42456,27925 -74844,27925 -37969,0 -64777,-25693 -64777,-63661 0,-56965 45781,-90469 125089,-90469 7813,0 17880,0 29041,1116 2232,-7812 2232,-11160 2232,-14509 0,-15647 -12277,-22344 -45781,-22344 -20112,0 -42456,3348 -58081,6697l-10067 3348 -6697 1116 10045 -52477c35760,-10068 59196,-13416 84889,-13416 61428,0 93817,24576 93817,69264 0,12277 -1116,20089 -6697,46897l-14508 82657 -2232 15624 -2256 12300 -1116 7812 0 6696zm-48013 -104977c-7812,-1116 -11183,-1116 -16763,-1116 -40201,0 -60313,12276 -60313,35736 0,14509 10068,23461 25692,23461 29040,0 50268,-23461 51384,-58081z"/>
    <path class="fil9" d="M5381124 805292c-23460,6696 -46920,10045 -72612,10045 -79309,0 -120626,-36853 -120626,-106094 0,-80424 52501,-139621 123974,-139621 59196,0 96049,33504 96049,84889 0,17880 -2232,34620 -8928,58080l-140738 0c-1116,4464 -1116,5580 -1116,7812 0,26809 21228,41340 62545,41340 25692,0 48036,-4464 73728,-15647l-12276 59196zm-33528 -139621c0,-5580 0,-8928 0,-12276 0,-18996 -12276,-30157 -33504,-30157 -22344,0 -39085,14532 -45781,42433l79285 0z"/>
    <path class="fil9" d="M6138380 703663c-10044,78169 -64777,112813 -137389,112813 -80402,0 -112790,-48036 -112790,-108349 0,-82657 54709,-139621 139598,-139621 73728,0 112813,46920 112813,106117 0,14508 0,15624 -2232,29040zm-71473 -27924c0,-24576 -10068,-48037 -39108,-48037 -35736,0 -59197,43573 -59197,80425 0,32388 15648,53616 41340,53616 15625,0 48013,-21228 54710,-58080 1139,-7836 2255,-17880 2255,-27924z"/>
    <path class="fil5" d="M6146192 775136c0,-10044 8952,-17857 18996,-17857 10045,-23 17880,7813 17880,17857 0,10044 -7835,18996 -17880,18996 -10044,0 -18996,-8952 -18996,-18996zm18996 14532c7812,0 13393,-6720 13393,-14532 23,-7812 -5581,-13393 -13393,-13393 -7812,0 -14508,5581 -14508,13393 0,7812 6696,14532 14508,14532zm-2232 -6720l-4464 0 0 -15624 6696 0c2232,0 3348,0 4464,1116 1116,1116 2232,2232 2232,3348 0,2232 -1116,4464 -3348,4464l3348 6696 -4464 0 -2232 -5580 -2232 0 0 5580zm0 -8928l2232 0c0,0 1116,0 2232,0 0,0 0,-1116 0,-2232 0,0 0,-1116 0,-1116 -1116,0 -2232,0 -3348,0l-1116 0 0 3348z"/>
    <polygon class="fil5" points="4936568,794132 4865095,794132 4907528,571854 4810363,794132 4745586,794132 4734402,572970 4691970,794132 4627193,794132 4681925,504845 4793599,504845 4799202,683551 4877372,504845 4992417,504845 "/>
    <path class="fil5" d="M5729584 790784c-20112,5580 -34620,7812 -51384,7812 -35737,0 -55849,-17880 -55849,-51384 0,-6697 1139,-13393 2256,-21205l4464 -23460 3348 -17880 32388 -179822 70357 0 -10044 53617 36852 0 -10044 56964 -36853 0 -17879 98281c-1116,4464 -2232,7813 -2232,10045 0,12299 7812,17879 24576,17879 7812,0 14508,-1116 18972,-2232l-8928 51385z"/>
    <path class="fil9" d="M5911661 626586l-1139 -7812 13416 -36852c-3349,0 -4465,0 -5581,-1116 -3348,-24 -5603,-1116 -5603,-1116 -2232,0 -4464,0 -6696,0 -23460,0 -40201,10044 -62545,37968l7812 -42456 -73705 0 -43572 235670 70380 0c10045,-54732 14509,-84865 20089,-110557 8952,-42456 40224,-61429 63684,-56965 2232,0 4464,0 7812,1116l4465 2232 11183 -20112z"/>
    <path class="fil5" d="M5936214 560694c-5580,-2232 -6696,-2232 -7812,-2232 -3348,-1117 -5580,-1117 -5580,-2233 -2233,0 -4465,0 -7813,0 -23460,0 -40224,10045 -61452,37969l6720 -35736 -64800 0 -43549 235670 71473 0c25692,-144085 35760,-169778 70380,-169778 2232,0 5580,1116 8929,1116l7812 2232 25692 -67008z"/>
    <path class="fil5" d="M5448133 633283c0,29040 16740,50268 54709,64776 29040,12300 33528,15648 33528,26809 0,14531 -13416,21228 -41340,21228 -21205,0 -41317,-3348 -64777,-10045l-8928 54733 3348 0 12276 3348c4464,0 11184,1116 18996,1116 16764,2232 30156,2232 40201,2232 74844,0 110581,-24576 110581,-78193 0,-32388 -14509,-51361 -51385,-65892 -30156,-11161 -33504,-14509 -33504,-25693 0,-12276 12300,-18972 35736,-18972 13416,0 33505,1116 51385,3348l10044 -53616c-18973,-3349 -46897,-4465 -62545,-4465 -80401,0 -108325,35737 -108325,79286z"/>
    <path class="fil5" d="M5166658 794132l-58080 0 1116 -24576c-17857,18972 -42433,27924 -74821,27924 -37992,0 -64800,-25692 -64800,-63661 0,-56964 45804,-90469 125112,-90469 7813,0 17857,0 29041,1116 2232,-7835 2232,-11183 2232,-14531 0,-15625 -12300,-21205 -45804,-21205 -20089,0 -42433,2232 -58081,5580l-10044 3348 -6697 1116 10045 -52500c35736,-8929 58080,-12277 84888,-12277 61429,0 92702,23460 92702,68125 0,12277 -1117,21228 -5581,46920l-14531 83750 -2233 14532 -2232 12276 -1116 7812 -1116 6720zm-51384 -105001c-7812,-1116 -11160,-1116 -15625,-1116 -40223,0 -60312,12300 -60312,35737 0,14531 8928,24576 24576,24576 29040,0 50245,-24576 51361,-59197z"/>
    <path class="fil5" d="M5400097 788528c-24577,6720 -48037,10068 -72589,10068 -79309,0 -120649,-36853 -120649,-106117 0,-80401 52500,-139598 123997,-139598 58080,0 94933,33505 94933,84889 0,17857 -2232,34621 -7813,58057l-141853 0c0,4465 0,5604 0,7836 0,26808 20089,41317 61429,41317 25692,0 49152,-4465 73705,-14509l-11160 58057zm-37969 -139598c0,-4464 0,-8928 0,-12299 0,-18973 -12300,-30133 -33504,-30133 -22344,0 -37992,15624 -44689,42432l78193 0z"/>
    <path class="fil5" d="M6157376 686899c-11184,78193 -65916,112813 -138505,112813 -79309,0 -111697,-48036 -111697,-108349 0,-82633 54732,-139598 139621,-139598 73728,0 112813,46897 112813,106094 0,14532 0,15648 -2232,29040zm-73728 -30156c0,-24576 -10045,-46897 -39085,-46897 -35737,-23 -58081,42433 -58081,80401 0,31273 15625,52501 40201,52501 15648,0 49152,-21228 54732,-56965 2233,-8928 2233,-18996 2233,-29040z"/>
   </g>
   <g>
    <polygon class="fil12" points="6622113,0 8478506,0 8540608,0 8540608,59592 8540608,1252778 8540608,1312369 8478506,1312369 6622113,1312369 6560010,1312369 6560010,1252778 6560010,59592 6560010,0 "/>
    <polygon class="fil13" points="6622113,28599 8478506,28599 8510824,28599 8510824,59592 8510824,1252778 8510824,1283771 8478506,1283771 6622113,1283771 6589818,1283771 6589818,1252778 6589818,59592 6589818,28599 "/>
    <polygon class="fil12" points="6622113,403146 8478506,403146 8478506,909223 6622113,909223 "/>
    <path class="fil14" d="M7995191 952586c-94306,152805 -259015,253574 -445416,253574 -186402,0 -351134,-100769 -445416,-253574l1374147 0 0 300192 -1856393 0 0 -300192 1373078 0z"/>
    <path class="fil13" d="M7016587 654557c0,1093 0,3255 0,5418 2162,31435 3255,53104 3255,66102 0,46618 -13021,81285 -37945,104047 -25995,22763 -65010,33598 -118115,33598 -49849,0 -85632,-8673 -108372,-28180 -21693,-18438 -32528,-49850 -32528,-93190 0,-3255 0,-10858 1093,-22762 0,-8673 0,-15183 0,-20601l5418 -144131 0 -7580c0,-22763 -2163,-37922 -6511,-44432 -4324,-6511 -12997,-9766 -25994,-10835l0 -16253 178799 0 0 16253c-15160,2162 -24925,8672 -30343,20577 -5417,10835 -8649,33597 -9742,65032l-2162 118114c0,5418 -1093,10835 -1093,16276 0,6487 0,14067 0,23832 0,27087 6510,47687 17345,60685 11905,12997 29250,20600 53105,20600 25995,-23 44433,-8673 55267,-23855 11928,-15160 17346,-41178 17346,-76937 0,-6511 0,-11928 0,-15183 0,-3255 0,-6487 -1093,-8649l-4325 -96468c-2185,-40085 -6510,-67195 -13020,-80192 -6511,-14090 -17345,-21670 -32505,-23832l0 -16253 125717 0 0 16253c-11927,1069 -21693,6487 -29273,15159 -6487,8673 -9742,20600 -9742,34690 0,5418 0,9743 0,12998 0,3255 0,7579 0,10835l5418 88864zm86702 -104024c0,-23855 -2185,-39015 -5441,-45525 -3231,-6510 -9742,-10835 -20577,-12997l0 -16253 199399 0 0 16253c-3255,2162 -6510,4324 -8672,6487 -2162,3255 -3255,5440 -3255,8672 0,3255 1093,5418 3255,9766 1093,4324 3255,7579 6510,10834l68265 81262 0 -58499c0,-23855 -1070,-39015 -5418,-45525 -3255,-6510 -9742,-10835 -19507,-12997l0 -16253 96467 0 0 16253c-9765,2162 -16275,6487 -20600,12997 -3255,6510 -5417,21670 -5417,45525l0 230811c0,23855 2162,39015 5417,45525 4325,6510 10835,10835 20600,12997l0 16253 -104047 0 0 -16253c11928,0 20600,-3232 26018,-9742 4324,-5417 6487,-17345 6487,-35760l0 -13020 -193982 -234066 0 226486c0,27087 2162,44432 6510,52012 5418,8673 14090,13021 27087,14090l0 16253 -105117 0 0 -16253c10835,-2162 17346,-6487 20577,-12997 3256,-6510 5441,-21670 5441,-45525l0 -230811zm359783 305586l0 -16253c9742,-2162 17345,-6487 20601,-12997 3231,-6510 5417,-21670 5417,-45525l0 -230811c0,-23855 -2186,-39015 -5417,-45525 -3256,-6510 -10859,-10835 -20601,-12997l0 -16253 161477 0 0 16253c-10835,2162 -17345,6487 -20600,12997 -3255,6510 -5417,21670 -5417,45525l0 230811c0,23855 2162,39015 5417,45525 3255,6510 9765,10835 20600,12997l0 16253 -161477 0zm198330 -189634c0,-56360 18414,-104048 55267,-141970 36829,-37922 81262,-56360 135459,-56360 54198,0 99700,18438 136552,56360 36853,37922 54175,85610 54175,141970 0,56360 -17322,102954 -54175,140877 -36852,37945 -82377,56360 -136552,56360 -54174,0 -98630,-18415 -135459,-56360 -36853,-37923 -55267,-84517 -55267,-140877zm185309 -149549c-21670,0 -39015,10834 -52012,32504 -11928,20600 -18438,49850 -18438,87795 0,54175 7580,96445 22762,128949 15183,32505 35760,48757 60685,48757 21670,0 37945,-10835 50943,-31412 11927,-21693 18414,-50942 18414,-88864 0,-53105 -7579,-96445 -22762,-128972 -15160,-32505 -34667,-48757 -59592,-48757zm261176 33597c0,-23855 -2162,-39015 -5417,-45525 -4348,-6510 -10835,-10835 -20600,-12997l0 -16253 199422 0 0 16253c-4348,2162 -7603,4324 -8673,6487 -2185,3255 -3255,5440 -3255,8672 0,3255 1070,5418 2163,9766 2162,4324 4324,7579 7579,10834l68288 81262 0 -58499c0,-23855 -2185,-39015 -5417,-45525 -3255,-6510 -10835,-10835 -20601,-12997l0 -16253 97538 0 0 16253c-9766,2162 -17345,6487 -20601,12997 -3255,6510 -5417,21670 -5417,45525l0 230811c0,23855 2162,39015 5417,45525 3256,6510 10835,10835 20601,12997l0 16253 -105117 0 0 -16253c12997,0 21669,-3232 25994,-9742 5441,-5417 7603,-17345 7603,-35760l0 -13020 -195074 -234066 0 226486c0,27087 3255,44432 7579,52012 4348,8673 12998,13021 26018,14090l0 16253 -104047 0 0 -16253c9765,-2162 16252,-6487 20600,-12997 3255,-6510 5417,-21670 5417,-45525l0 -230811z"/>
    <path class="fil12" d="M7404550 1024106l-5417 1069c-5418,-17322 -10835,-29249 -16253,-35736 -4348,-6510 -10835,-9766 -17345,-9766 -8672,0 -15159,5418 -20600,15183 -5418,10835 -8649,24925 -8649,42247 0,21693 4324,40108 11904,55267 7603,15183 16276,21693 27110,21693 7580,-23 14067,-2185 19508,-8672 5417,-6511 9742,-15183 12997,-28180l3255 2162 -11927 57429c-1093,-1069 -3256,-2162 -4325,-2162 -2186,0 -3255,-1069 -4348,-1069 -2162,0 -6510,1069 -11928,2162 -5394,1069 -10835,2162 -14066,2162 -18438,0 -33598,-9742 -45526,-28180 -11927,-18414 -17345,-42270 -17345,-72612 0,-27087 4348,-47664 14090,-61754 9766,-14090 23832,-20600 42270,-20600 4325,0 9742,0 15160,1092 5417,1070 9765,1070 10835,1070 1093,0 3255,0 5417,-1070 1093,0 3255,-1092 5441,-3255l9742 71520zm42270 23832c4325,1093 8673,2185 12997,4348 3255,2162 6510,5417 9766,8672l-11928 -63939 -10835 50919zm0 -66102c0,-1070 1070,-2163 1070,-3255 0,-2163 0,-3232 0,-4325 0,-2162 0,-3255 -1070,-4325 -1093,-2185 -2162,-3255 -3255,-4348l0 -7579 49850 0 0 7579c-2163,1093 -3255,2163 -3255,3256 -1070,2162 -1070,3255 -1070,4324 0,1093 0,2186 0,4348 0,1070 0,2162 0,4325l24925 118137c2162,10835 4325,18415 6487,21670 2185,3255 4348,4325 6510,4325l0 7603 -55267 0 0 -7603c3255,0 5417,-2163 6510,-4325 1070,-2162 2162,-5418 2162,-9765 0,-11905 -4347,-21670 -10834,-30343 -7603,-8672 -16253,-12997 -27111,-14090l-6487 28180c-1093,4348 -1093,7603 -2185,10835 0,3255 0,5418 0,7603 0,4325 0,7580 2185,9742 1070,1093 3255,2163 6487,2163l0 7603 -36829 0 0 -7603c3255,-1070 6487,-3256 8672,-7580 2163,-3255 4325,-11928 7580,-24925l24925 -111627zm124624 50942c7580,-3255 14090,-7579 18415,-14090 4348,-6510 6510,-14090 6510,-23832 0,-6510 -1092,-11927 -3255,-14090 -2162,-3255 -5417,-5417 -10835,-5417 -4324,-23 -6510,1069 -8672,2162 -1070,2162 -2163,6510 -2163,12997l0 42270zm-41177 100793l0 -7603c3255,0 4325,-2163 5418,-5418 2162,-3255 2162,-9742 2162,-21670l0 -106209c0,-10835 0,-18415 -2162,-20577 -1093,-3255 -2163,-5418 -5418,-6511l0 -7579 75868 0c8649,0 14066,2162 18414,7579 3255,4348 5418,10835 5418,20601 0,8649 -2163,16252 -5418,22762 -3255,7580 -8672,14067 -16252,22740 4325,7603 8673,17345 11904,28180 4348,10834 7603,23855 11928,40107 0,1070 0,1070 1093,2162 3255,15160 7580,22763 11904,23833l24 7603 -50943 0 0 -7603c2162,-1070 3255,-2163 4325,-4325 1092,-1093 1092,-3255 1092,-6510 0,-6487 -2162,-16253 -6510,-30343 -4324,-12997 -8672,-24924 -15159,-34667l-6511 2163 0 46594c0,11928 0,18415 1093,21670 1070,3255 3232,5418 6487,5418l0 7603 -48757 0zm118114 0l0 -7603c2163,0 4348,-2163 5418,-5418 1093,-3255 2185,-9742 2185,-21670l0 -106209c0,-10835 -1092,-18415 -2185,-20577 -1070,-3255 -3255,-5418 -5418,-6511l0 -7579 49850 0c8673,0 16276,2162 22763,4324 6510,3255 11927,7603 17345,14090 8672,9766 14090,20601 18414,34691 5418,14066 7603,29249 7603,46594 0,10835 -2185,21670 -4347,31435 -3256,9742 -6511,18415 -11928,25995 -4325,6510 -9742,10835 -16252,14090 -5418,3255 -12998,4348 -22763,4348l-60685 0zm41178 -41201l0 5418c0,7603 0,13020 2185,15182 1070,2163 3232,2163 7580,2163 9765,0 16252,-4325 21670,-15160 5417,-10835 7579,-26017 7579,-44432 24,-21693 -3231,-40108 -8649,-55267 -6510,-15183 -13020,-22763 -21693,-22763 -3232,0 -5417,1070 -6487,4325 -2185,3255 -2185,9765 -2185,18438l0 92096z"/>
    <path class="fil12" d="M7133631 317536l-511518 0 0 42247 1856393 0 0 -42247 -512588 0c-96445,-128972 -247087,-211326 -416143,-211326 -167988,0 -318630,82354 -416144,211326z"/>
   </g>
  </g>
 </g>
</svg>
